<svg xmlns="http://www.w3.org/2000/svg"><defs><font id="FiraSans" horiz-adv-x="558"><font-face alphabetic="0" ascent="935" descent="-265" font-family="Fira Sans" panose-1="2 11 5 3 5 0 0 2 0 4"/><glyph glyph-name="space" horiz-adv-x="265"/><glyph d="m170 689-10-459H79L68 689h102Zm-20-562 20-20 20-49q0-29-20-49t-50-21Q91-12 71 8T51 58q0 29 20 49t49 20q30 0 50-20Z" glyph-name="exclam" horiz-adv-x="241" unicode="!"/><glyph d="M75 427 60 689h99l-15-262H75Zm180 0-15 262h99l-15-262h-69Z" glyph-name="quotedbl" horiz-adv-x="399" unicode="&quot;"/><glyph d="M503 447h-76l-28-215h67v-69h-77L368 0h-78l21 163H157L136 0H58l21 163H15v69h74l28 215H52v70h74l20 152h78l-20-152h154l20 152h78l-20-152h67v-70ZM321 232l28 215H195l-28-215h154Z" glyph-name="numbersign" horiz-adv-x="518" unicode="#"/><glyph d="m491 110-48-52L310-8v-147h-80v144Q107-5 25 75l54 59q72-70 172-70 63 0 103 31t41 88q0 33-12 55t-44 39-89 35q-103 32-150 75T52 505q0 70 49 117t129 56v146h80V677q48-5 86-23t74-52l-53-58q-34 32-70 46t-80 14q-53 0-86-24t-34-71q0-29 12-48t43-36 91-36q63-19 105-42t67-62 26-99q0-76-48-128Z" glyph-name="dollar" horiz-adv-x="531" unicode="$"/><glyph d="m613 711 64-42L214-31l-64 42 463 700Zm-334-32 45-46 46-123q0-77-45-123t-118-46q-71 0-116 46T45 510q0 77 45 123t117 46q72 0 117-46Zm-116-62-18-30-19-77q0-46 18-76t63-31q81 0 81 107 0 46-18 76t-63 31q-44 0-62-30Zm528-291 45-46 45-123q0-77-45-123T619-12q-72 0-117 46t-46 123q0 77 45 123t118 46q72 0 117-46Zm-116-63-18-29-19-77q0-46 18-76t63-31q81 0 81 107 0 46-18 76t-63 30q-44 0-62-29Z" glyph-name="percent" horiz-adv-x="826" unicode="%"/><glyph d="m356 701 41-19 65-55 23-78q0-59-37-101t-104-82l176-166q40 81 60 169l86-25q-35-116-89-197L689 42l-66-54-97 94q-43-47-97-70T305-12q-66 0-116 23t-79 65-29 99q0 62 35 108t104 91q-50 48-73 86t-24 86q0 68 47 111t132 44q54 0 95-19Zm-95-68-24-24-24-62q0-36 19-64t60-68q51 31 77 61t26 68q0 42-25 65t-67 24q-42 0-66-24Zm-38-342-24-34-24-79q0-55 38-86t102-31q47 0 85 18t73 54L273 324q-50-33-74-67Z" glyph-name="ampersand" horiz-adv-x="729" unicode="&amp;"/><glyph d="M75 427 60 689h99l-15-262H75Z" glyph-name="quotesingle" horiz-adv-x="219" unicode="'"/><glyph d="M284 805q-52-77-82-137t-48-138-18-180q0-102 17-179t48-138 83-138l-58-40Q160-51 125 9T65 154 40 350q0 111 24 195t60 145 102 155l58-40Z" glyph-name="parenleft" horiz-adv-x="324" unicode="("/><glyph d="m164 751 35-60 60-145 25-196q0-111-24-195T200 10 98-145l-58 40q52 76 82 137t48 139 18 179q0 103-17 180t-48 137-83 138l58 40q66-94 101-154Z" glyph-name="parenright" horiz-adv-x="324" unicode=")"/><glyph d="m419 561-153-33 104-116-72-53-79 134-78-134-72 52 103 117-152 33 27 82 142-61-15 157h90l-15-158 142 63 28-83Z" glyph-name="asterisk" horiz-adv-x="439" unicode="*"/><glyph d="M291 519V369h146v-76H291V144h-84v149H62v76h145v150h84Z" glyph-name="plus" horiz-adv-x="499" unicode="+"/><glyph d="m149 127 20-20 20-49q0-31-18-71l-67-153H38L78 0Q65 10 58 25t-8 33q0 29 20 49t49 20q30 0 50-20Z" glyph-name="comma" horiz-adv-x="240" unicode=","/><glyph d="M60 274v78h283v-78H60Z" glyph-name="hyphen" horiz-adv-x="403" unicode="-"/><glyph d="m149 127 20-20 20-49q0-29-20-49t-50-21Q90-12 70 8T50 58q0 29 20 49t49 20q30 0 50-20Z" glyph-name="period" horiz-adv-x="240" unicode="."/><glyph d="m337 807 78-18-231-893-79 19 232 892Z" glyph-name="slash" horiz-adv-x="520" unicode="/"/><glyph d="m390 679 56-88 57-257q0-168-56-257T279-12q-111 0-167 89T55 334q0 168 56 256t168 89q111 0 167-88Zm-176-73-31-64-32-208q0-144 31-208t97-65q64 0 96 64t32 209q0 143-32 207t-96 65q-65 0-96-64Z" glyph-name="zero" unicode="0"/><glyph d="M323 669V0h-92v571L75 476l-40 65 207 128h81Z" glyph-name="one" horiz-adv-x="433" unicode="1"/><glyph d="m288 679 45-24 71-65 25-94q0-61-27-117t-85-121T144 77h301L434 0H39v73q134 139 190 203t80 113 24 103q0 52-30 81t-80 30q-41 0-72-17t-66-56l-60 48q41 51 91 76t112 25q60 0 105-24Z" glyph-name="two" horiz-adv-x="495" unicode="2"/><glyph d="m287 679 44-23 68-62 24-85q0-61-35-100t-95-54q67-6 109-48t42-114q0-58-28-105t-80-73-120-27q-61 0-112 22T15 78l55 51q33-34 67-50t76-16q63 0 99 35t36 96q0 66-34 93t-99 27h-50l11 71h34q52 0 86 31t35 87q0 47-30 74t-81 28q-39 0-71-14t-67-46l-48 55q85 79 191 79 62 0 106-23Z" glyph-name="three" horiz-adv-x="499" unicode="3"/><glyph d="M502 238v-73h-87V0h-89v165H40v66l201 448 77-32-181-409h190l8 180h80V238h87Z" glyph-name="four" horiz-adv-x="532" unicode="4"/><glyph d="M420 597H159V400q51 26 107 26 86 0 138-56t52-156q0-66-29-117t-81-80-122-29q-61 0-109 21T26 73l54 53q32-32 66-47t77-16q64 0 100 40t37 113q0 73-33 106t-89 33q-26 0-48-5t-47-18H71v337h362l-13-72Z" glyph-name="five" horiz-adv-x="501" unicode="5"/><glyph d="m359 440 42-24 67-72 25-117q0-71-28-125t-77-84-108-30q-117 0-171 86T55 314q0 109 30 191t88 128 135 46q76 0 138-41l-36-61q-47 29-103 29-72 0-114-69t-46-185q62 88 161 88 51 0 93-24ZM338 61l31 44 31 119q0 143-108 143-44 0-81-24t-63-68q3-110 34-162t98-52q58 0 89 44Z" glyph-name="six" horiz-adv-x="533" unicode="6"/><glyph d="M414 669v-69L164-10 80 18l241 576H25v75h389Z" glyph-name="seven" horiz-adv-x="444" unicode="7"/><glyph d="M506 302V179q0-55-29-98t-83-68-120-25q-68 0-120 24T74 79t-29 98q0 62 33 104t99 70q-53 27-78 65t-26 91q0 54 28 93t75 59 100 20q52 0 98-19t76-57 29-93q0-50-28-86t-86-65q141-57 141-180ZM224 610l-30-27-31-77q0-48 29-73t95-46l17-6q45 26 65 55t20 71q0 47-29 75t-84 28q-52 0-82-27ZM337 61l36 32 37 85q0 36-14 60t-45 43-87 38l-25 9q-50-24-74-60t-24-91q0-55 36-85t98-31q62 0 98 32Z" glyph-name="eight" horiz-adv-x="551" unicode="8"/><glyph d="m365 679 55-69 55-191q0-137-37-220T325 66 119-22L98 47q134 38 205 103t77 173q-23-36-62-58t-88-22q-52 0-94 26t-66 75-25 114q0 68 29 118t77 76 108 27q106 0 161-69Zm-37-364 54 83q2 111-27 159t-94 49q-59 0-91-39t-32-111q0-70 30-105t81-36q79 0 133 83Z" glyph-name="nine" horiz-adv-x="525" unicode="9"/><glyph d="m149 127 20-20 20-49q0-29-20-49t-50-21Q90-12 70 8T50 58q0 29 20 49t49 20q30 0 50-20Zm0 368 20-20 20-49q0-29-20-49t-50-21q-29 0-49 20t-20 50q0 29 20 49t49 20q30 0 50-20Z" glyph-name="colon" horiz-adv-x="240" unicode=":"/><glyph d="m149 127 20-20 20-49q0-31-18-71l-67-153H38L78 0Q65 10 58 25t-8 33q0 29 20 49t49 20q30 0 50-20Zm0 368 20-20 20-49q0-29-20-49t-50-21q-29 0-49 20t-20 50q0 29 20 49t49 20q30 0 50-20Z" glyph-name="semicolon" horiz-adv-x="240" unicode=";"/><glyph d="m417 551 33-76-327-142 327-144-33-74L50 286v94l367 171Z" glyph-name="less" horiz-adv-x="500" unicode="&lt;"/><glyph d="M62 389v77h376v-77H62Zm0 63v77h376v-77H62Z" glyph-name="equal" horiz-adv-x="500" unicode="="/><glyph d="m83 551 367-171v-94L83 115l-33 74 327 144L50 475l33 76Z" glyph-name="greater" horiz-adv-x="500" unicode="&gt;"/><glyph d="m298 701 43-21 66-58 22-77q0-39-13-66t-33-45-51-40q-42-29-63-53t-21-66v-45h-91v50q0 43 14 73t35 48 53 41q38 25 56 45t18 52q0 41-27 63t-74 23q-80 0-139-72l-63 49q84 99 208 99 60 0 103-21Zm-63-574 20-20 20-49q0-29-20-49t-50-21q-29 0-49 20t-20 50q0 29 20 49t49 20q30 0 50-20Z" glyph-name="question" horiz-adv-x="459" unicode="?"/><glyph d="m660 701 96-53 145-144 49-197q0-130-50-214T753 9q-56 0-87 31t-41 72q-19-44-54-72t-90-29q-80 0-126 60t-47 160q0 126 60 193t158 68q42 0 79-9t78-31V193q0-62 17-87t51-26q106 0 106 225 0 97-38 169T707 585t-181 40q-110 0-192-49T207 439t-44-199q0-111 42-196T330-89t196-48q95 0 192 34l25-71q-56-20-105-29t-113-10q-134 0-237 55T128 1 70 240q0 130 57 235t162 165 237 61q134 0 230-53ZM567 78l33 86v247q-33 15-71 15-131 0-131-195 0-75 24-114t70-39q75 0 108 86Z" glyph-name="at" horiz-adv-x="1020" unicode="@"/><glyph d="m467 0-52 173H154L102 0H6l221 689h120L567 0H467ZM177 250h215L285 610 177 250Z" glyph-name="A" horiz-adv-x="573" unicode="A"/><glyph d="m475 352 44-38 44-118Q563 0 290 0H100v689h163q131 0 200-43t70-131q0-60-37-100t-92-51q71-12 115-50ZM195 614V397h104q60 0 98 29t39 82q0 60-40 83t-123 23h-78ZM374 76l44 25 45 95q0 68-43 98t-112 30H195V76h95q84 0 128 25Z" glyph-name="B" horiz-adv-x="608" unicode="B"/><glyph d="m403 701 42-16 87-52-52-61q-63 51-133 51-86 0-138-66t-53-212q0-142 52-209t138-68q44 0 77 15t70 42l47-60q-32-33-82-55T343-12q-84 0-149 41T92 151 55 345q0 113 38 193t103 122 145 41q62 0 104-16Z" glyph-name="C" horiz-adv-x="560" unicode="C"/><glyph d="m400 689 94-72 95-269q0-191-94-269T265 0H100v689h144q156 0 250-72Zm-205-76V75h77q96 0 156 59t60 214q0 109-31 167t-79 78-113 20h-70Z" glyph-name="D" horiz-adv-x="644" unicode="D"/><glyph d="m473 689-11-76H195V388h232v-76H195V76h286V0H100v689h373Z" glyph-name="E" horiz-adv-x="535" unicode="E"/><glyph d="M100 0v689h366l-11-76H195V378h225v-75H195V0h-95Z" glyph-name="F" horiz-adv-x="491" unicode="F"/><glyph d="m419 701 47-18 95-58-56-58q-37 30-71 43t-80 13q-53 0-97-28t-73-91-28-159q0-145 47-212t141-67q76 0 131 31v208H353l-11 77h227V49Q462-12 344-12q-136 0-212 91T55 345q0 112 40 192t109 122 150 42q65 0 112-18Z" glyph-name="G" horiz-adv-x="631" unicode="G"/><glyph d="M485 0v323H195V0h-95v689h95V401h290v288h95V0h-95Z" glyph-name="H" horiz-adv-x="680" unicode="H"/><glyph d="M195 689V0h-95v689h95Z" glyph-name="I" horiz-adv-x="295" unicode="I"/><glyph d="M210 96q0-102-44-153T30-137L5-68q46 18 69 39t32 51 9 78v589h95V96Z" glyph-name="J" horiz-adv-x="305" unicode="J"/><glyph d="M195 689V0h-95v689h95Zm375 0L309 374 589 0H472L200 368l262 321h108Z" glyph-name="K" horiz-adv-x="589" unicode="K"/><glyph d="M195 689V83h283L467 0H100v689h95Z" glyph-name="L" horiz-adv-x="498" unicode="L"/><glyph d="M716 0h-92l-24 311q-15 183-17 281L434 78h-89L188 593q0-125-13-289L152 0H62l57 689h128l145-501 138 501h129L716 0Z" glyph-name="M" horiz-adv-x="778" unicode="M"/><glyph d="M583 0H456L176 585q6-69 9-127t4-142V0h-89v689h124l283-586q-3 26-8 91t-5 119v376h89V0Z" glyph-name="N" horiz-adv-x="683" unicode="N"/><glyph d="m433 701 65-41 102-122 37-194q0-112-36-192T499 30 346-12q-87 0-152 41T92 150 55 343q0 111 36 192t103 123 152 43q87 0 152-41Zm-177-78-50-68-50-212q0-143 50-210t140-67q190 0 190 278 0 279-190 279-90 0-140-68Z" glyph-name="O" horiz-adv-x="692" unicode="O"/><glyph d="m409 689 70-53 70-160q0-113-73-168t-194-55h-87V0h-95v689h181q128 0 198-53Zm-48-361 43 32 44 115q0 74-43 107t-125 33h-85V328h83q83 0 126 32Z" glyph-name="P" horiz-adv-x="581" unicode="P"/><glyph d="m534 39 45-16 87-46-62-80q-60 53-114 73T344-10q-86 0-151 40T92 150 55 343q0 111 36 192t103 123 152 43q87 0 152-41t102-122 37-194q0-121-40-192T479 39q55 0 100-16ZM156 200l50-67 140-67q190 0 190 278 0 279-190 279-90 0-140-68t-50-212q0-143 50-210Z" glyph-name="Q" horiz-adv-x="691" unicode="Q"/><glyph d="M302 292H195V0h-95v689h181q129 0 195-49t67-146q0-72-37-117t-112-68L580 0H467L302 292Zm-11 73q75 0 113 30t38 99q0 64-38 92t-124 29h-85V365h96Z" glyph-name="R" horiz-adv-x="605" unicode="R"/><glyph d="m339 701 49-19 95-61-52-58q-39 31-76 45t-81 15q-54 0-89-25t-35-73q0-30 12-50t44-38 95-36q65-20 108-43t69-63 27-103q0-60-29-106t-85-72-132-26Q116-12 25 77l52 58q42-34 85-51t96-18q64 0 106 31t42 92q0 34-13 56t-44 41-92 36q-106 32-155 77T53 521q0 52 27 93t77 64 113 23q69 0 118-19Z" glyph-name="S" horiz-adv-x="545" unicode="S"/><glyph d="m507 689-10-81H306V0h-95v608H15v81h492Z" glyph-name="T" horiz-adv-x="517" unicode="T"/><glyph d="M572 221q0-69-28-121t-83-82-131-30q-115 0-177 63T90 221v468h95V228q0-80 36-120t109-40q74 0 110 39t36 121v461h96V221Z" glyph-name="U" horiz-adv-x="662" unicode="U"/><glyph d="M550 689 330 0H228L6 689h102l173-586 173 586h96Z" glyph-name="V" horiz-adv-x="556" unicode="V"/><glyph d="M801 689 661 0H539L412 577 284 0H165L25 689h93L229 83l133 606h101L599 83l115 606h87Z" glyph-name="W" horiz-adv-x="826" unicode="W"/><glyph d="M325 372 535 0H427L268 305 107 0H5l207 367L23 689h108l139-259 140 259h102L325 372Z" glyph-name="X" horiz-adv-x="540" unicode="X"/><glyph d="M545 689 323 265V0h-96v264L5 689h105l168-341 168 341h99Z" glyph-name="Y" horiz-adv-x="550" unicode="Y"/><glyph d="M477 689v-77L136 81h341L466 0H30v76l344 533H66v80h411Z" glyph-name="Z" horiz-adv-x="522" unicode="Z"/><glyph d="M272 816v-77H152V-40h120v-76H65v932h207Z" glyph-name="bracketleft" horiz-adv-x="322" unicode="["/><glyph d="M183 807 415-85l-79-19-231 893 78 18Z" glyph-name="backslash" horiz-adv-x="520" unicode="\"/><glyph d="M257 816v-932H50v76h120v779H50v77h207Z" glyph-name="bracketright" horiz-adv-x="322" unicode="]"/><glyph d="m311 840 189-313h-98L269 760 137 527H40l189 313h82Z" glyph-name="asciicircum" horiz-adv-x="540" unicode="^"/><glyph d="M17-142v79h486v-79H17Z" glyph-name="underscore" horiz-adv-x="520" unicode="_"/><glyph d="m71 801 199-114-28-49-212 86 41 77Z" glyph-name="grave" horiz-adv-x="300" unicode="`"/><glyph d="m450 91 11-15 33-24-21-64q-41 5-66 23t-37 56q-53-79-157-79-78 0-123 44T45 147q0 84 60 129t172 45h81v39q0 56-27 80t-83 24q-58 0-142-28l-23 67q98 36 182 36 93 0 139-45t46-130V123q0-32 11-47ZM313 57l45 82v121h-69q-146 0-146-108 0-47 23-71t68-24q79 0 124 82Z" glyph-name="a" horiz-adv-x="544" unicode="a"/><glyph d="m426 539 53-72 53-203q0-82-25-144t-72-97-110-35q-83 0-140 70l-9-58H95v739l92 11V461q57 78 149 78 90 0 143-72ZM364 61l34 49 35 154q0 107-32 154t-91 48q-70 0-123-82V132q21-33 51-52t65-19q61 0 95 49Z" glyph-name="b" horiz-adv-x="594" unicode="b"/><glyph d="m334 539 39-13 75-44-44-58q-28 20-54 29t-59 10q-64 0-99-51t-36-151q0-100 35-147t100-48q31 0 57 9t58 31l42-60q-72-58-161-58-107 0-168 72T57 259q0 84 28 147t79 98 123 35q47 0 86-13Z" glyph-name="c" horiz-adv-x="478" unicode="c"/><glyph d="M503 739V0h-81l-9 73q-26-40-65-62t-87-23q-94 0-146 74T62 261q0 81 25 144t72 98 110 36q81 0 142-65v276l92-11ZM323 61l30 19 58 59v258q-26 34-55 51t-67 18q-61 0-94-51t-34-152q0-102 31-152t89-50q42 0 72 19Z" glyph-name="d" horiz-adv-x="598" unicode="d"/><glyph d="m493 256-2-24H155q6-87 44-128t98-41q38 0 70 11t67 35l40-55q-84-66-184-66-110 0-171 72T57 258q0 82 26 145t76 100 117 36q105 0 161-69t56-191q0-23-2-47Zm-91 50q0 78-31 119t-93 41q-113 0-123-166h247v6Z" glyph-name="e" horiz-adv-x="545" unicode="e"/><glyph d="m232 676-18-18-18-58v-73h128l-10-71H196V0h-92v456H10v71h94v72q0 68 43 109t122 42q36 0 64-6t62-21l-29-67q-45 20-92 20-42 0-60-18Z" glyph-name="f" horiz-adv-x="335" unicode="f"/><glyph d="M520 503q-30-10-66-13t-88-3q93-42 93-133 0-79-54-129t-147-50q-36 0-67 10-12-8-19-21t-7-28q0-43 69-43h84q53 0 94-19t63-52 23-75q0-77-63-118t-184-42q-85 0-134 17t-71 53-21 90h83q0-32 12-50t43-28 88-10q83 0 118 20t36 62q0 37-28 56t-78 19h-83q-67 0-101 28t-35 72q0 26 15 50t43 43q-46 24-67 59t-22 87q0 53 26 95t73 65 104 24q62-1 104 4t69 15 68 28l27-83Zm-320-30-28-32-29-86q0-54 29-86t82-33q54 0 82 31t29 89q0 117-113 117-52 0-80-32Z" glyph-name="g" horiz-adv-x="520" unicode="g"/><glyph d="m415 539 40-43 41-118V0h-92v365q0 56-21 79t-63 23q-41 0-73-24t-60-68V0H95v738l92 10V454q62 85 156 85 72 0 112-43Z" glyph-name="h" horiz-adv-x="586" unicode="h"/><glyph d="M187 527V0H95v527h92Zm-18 253 18-18 18-45q0-27-18-44t-47-18q-28 0-46 17t-18 45q0 27 18 45t46 18q29 0 47-18Z" glyph-name="i" horiz-adv-x="282" unicode="i"/><glyph d="M185 32q0-73-18-117t-52-71-97-56l-27 67q39 18 60 35t31 49 11 87v501h92V32Zm-17 748 18-18 18-45q0-27-18-44t-47-18q-28 0-46 17t-18 45q0 27 18 45t46 18q29 0 47-18Z" glyph-name="j" horiz-adv-x="280" unicode="j"/><glyph d="M187 750V0H95v739l92 11Zm303-223L296 294 512 0H402L193 288l194 239h103Z" glyph-name="k" horiz-adv-x="512" unicode="k"/><glyph d="m149-12-29 30-30 86v635l92 11V106q0-22 7-32t26-10q19 0 34 6l24-64q-33-18-73-18-51 0-80 30Z" glyph-name="l" horiz-adv-x="293" unicode="l"/><glyph d="m689 539 39-43 39-118V0h-92v365q0 102-74 102-39 0-66-22t-58-71V0h-92v365q0 102-74 102-40 0-67-23t-57-70V0H95v527h79l8-77q59 89 152 89 49 0 83-25t50-70q31 46 68 70t89 25q65 0 104-43Z" glyph-name="m" horiz-adv-x="857" unicode="m"/><glyph d="m415 539 40-43 41-118V0h-92v365q0 56-21 79t-62 23q-42 0-74-24t-60-69V0H95v527h79l8-78q28 42 69 66t92 24q72 0 112-43Z" glyph-name="n" horiz-adv-x="586" unicode="n"/><glyph d="m404 539 61-74 62-201q0-82-28-144t-81-97-126-35q-111 0-173 74T57 263q0 82 28 144t81 97 127 35q111 0 172-74Zm-248-74V263q0-201 136-201t136 202q0 201-135 201-137 0-137-202Z" glyph-name="o" horiz-adv-x="584" unicode="o"/><glyph d="m438 539 47-72 47-203q0-124-54-200T325-12q-88 0-138 60v-250l-92-11v740h79l7-71q29 40 70 61t86 22q101 0 148-72Zm-5-476v201q0 202-119 202-39 0-71-23t-56-59V127q20-31 50-47t66-17q130 0 130 201Z" glyph-name="p" horiz-adv-x="594" unicode="p"/><glyph d="M503 527v-740l-92 11V70q-26-39-64-60t-86-22q-94 0-146 74T62 261q0 81 25 144t72 98 110 36q84 0 148-71l7 59h79ZM323 61l30 19 58 59v258q-26 34-55 51t-67 18q-61 0-94-51t-34-152q0-102 31-152t89-50q42 0 72 19Z" glyph-name="q" horiz-adv-x="598" unicode="q"/><glyph d="m352 539 24-6-17-90q-24 6-46 6-49 0-79-36t-47-112V0H95v527h79l9-107q21 59 57 89t84 30q28 0 52-6Z" glyph-name="r" horiz-adv-x="386" unicode="r"/><glyph d="m292 539 43-15 82-45-39-58q-36 23-68 34t-69 11q-45 0-71-18t-26-51q0-32 24-50t89-35q88-22 131-60t44-104q0-78-60-119T224-12Q104-12 25 57l49 56q67-51 148-51 52 0 82 21t31 59q0 27-11 43t-38 29-79 27q-84 22-121 59t-38 94q0 41 24 74t68 52 98 19q54 0 97-15Z" glyph-name="s" horiz-adv-x="467" unicode="s"/><glyph d="M361 24q-52-36-118-36-67 0-104 38t-38 112v318H9v71h92v119l92 11V527h125l-10-71H193V142q0-41 14-59t49-19q31 0 70 21l35-61Z" glyph-name="t" horiz-adv-x="361" unicode="t"/><glyph d="M487 0h-79l-7 82q-30-49-69-71t-95-23q-69 0-108 42T90 149v378h92V159q0-54 19-76t62-23q77 0 132 91v376h92V0Z" glyph-name="u" horiz-adv-x="582" unicode="u"/><glyph d="M482 527 303 0H192L10 527h100L248 82l137 445h97Z" glyph-name="v" horiz-adv-x="492" unicode="v"/><glyph d="M697 527 577 0H452l-92 444L265 0H143L20 527h92l95-463 104 463h103l99-463 96 463h88Z" glyph-name="w" horiz-adv-x="717" unicode="w"/><glyph d="M297 282 480 0H369L240 223 109 0H5l184 278L26 527h108l110-193 111 193h104L297 282Z" glyph-name="x" horiz-adv-x="485" unicode="x"/><glyph d="M306-3q-31-92-86-145T61-213l-10 72q52 9 83 26t49 43 35 72h-31L10 527h98L249 67l138 460h95L306-3Z" glyph-name="y" horiz-adv-x="492" unicode="y"/><glyph d="M404 527v-70L129 77h278L396 0H25v69l274 380H48v78h356Z" glyph-name="z" horiz-adv-x="437" unicode="z"/><glyph d="M277 765q-51 0-73-15t-22-53V458q0-51-18-73t-57-36q40-14 57-35t18-72V3q0-37 22-52t73-16v-71q-100 0-141 34T95 13v222q0 42-15 59t-55 17v76q39 0 54 18t16 60v222q0 80 41 114t141 35v-71Z" glyph-name="braceleft" horiz-adv-x="322" unicode="{"/><glyph d="M243 807v-909h-83v909h83Z" glyph-name="bar" horiz-adv-x="403" unicode="|"/><glyph d="m145 836 41-34 41-115V465q0-42 15-60t55-18v-76q-39 0-54-17t-16-59V13q0-80-41-114T45-136v71q51 0 73 15t22 53v239q0 51 17 72t58 35q-39 13-57 35t-18 74v239q0 37-22 52t-73 16v71q100 0 141-34Z" glyph-name="braceright" horiz-adv-x="322" unicode="}"/><glyph d="m290 250-21 9-52 29q-18 12-30 18t-24 6q-39 0-72-54l-56 29q50 97 137 97 28 0 49-9t49-27q20-13 32-19t26-6q21 0 39 13t31 35l55-30q-47-91-134-91-29 0-50 9Z" glyph-name="asciitilde" horiz-adv-x="488" unicode="~"/><glyph glyph-name="uni00A0" horiz-adv-x="265"/><glyph d="m150 495 20-20 20-50q0-29-20-49t-49-20q-30 0-50 20t-20 49q0 29 20 49t50 21q29 0 49-20Zm12-248 11-449H71l10 449h81Z" glyph-name="exclamdown" horiz-adv-x="241" unicode="¡"/><glyph d="M448 46Q392 1 329-9v-145h-80V-9Q159 3 108 73T57 259q0 115 51 189t142 88v148h79V536q65-9 119-54l-44-58q-28 20-54 29t-59 10q-64 0-99-51t-36-151q0-100 35-147t100-48q31 0 57 9t58 31l42-60Z" glyph-name="cent" horiz-adv-x="478" unicode="¢"/><glyph d="m213 153-13-28-48-48h320L461 0H40v73q35 13 52 27t23 38 7 67v117H56v60h66v111q0 83 50 134t139 52q55 0 99-20t80-63l-60-46q-24 28-51 41t-64 13q-49 0-75-28t-27-82V382h208v-60H213V204q0-51-13-79Z" glyph-name="sterling" horiz-adv-x="520" unicode="£"/><glyph d="m492 272-37-54 76-75-55-55-78 76q-53-32-120-32-66 0-118 35L82 88l-53 55 78 78q-36 53-36 120 0 65 35 119l-77 80 55 55 78-80q49 34 116 34 69 0 121-33l79 79 53-55-76-77q37-52 37-122 0-69-37-123Zm-151-67 31 36 32 101q0 65-31 101t-92 36q-59 0-90-36t-32-101q0-65 31-101t91-36q60 0 91 36Z" glyph-name="currency" horiz-adv-x="560" unicode="¤"/><glyph d="M531 669 340 346h113v-62H315v-90h138v-61H315V0h-94v133H82v61h139v90H82v62h114L5 669h102l164-295 163 295h97Z" glyph-name="yen" horiz-adv-x="536" unicode="¥"/><glyph d="M243 807V443h-83v364h83Zm0-545v-364h-83v364h83Z" glyph-name="brokenbar" horiz-adv-x="403" unicode="¦"/><glyph d="M441 136V75q0-67-54-106T246-71q-97 0-168 50l35 61q30-20 62-29t74-10q44 0 72 17t28 48q0 24-10 39t-35 28-79 30q-83 27-119 59t-36 89q0 36 20 67t57 54q-27 18-40 42t-13 59q0 67 52 105t135 39q97 0 171-54l-35-58q-33 21-65 31t-72 10q-45 0-70-17t-25-49q0-24 9-39t36-30 77-31q83-28 119-61t37-86q0-69-76-120 54-37 54-98ZM159 287l19-18 76-36q43-14 79-30 20 18 31 38t11 39q0 24-9 39t-31 28-68 29q-35 13-67 27-19-19-30-40t-11-40q0-36 19-54Z" glyph-name="section" horiz-adv-x="533" unicode="§"/><glyph d="m112 768 16-16 17-41q0-24-16-40t-41-17q-25 0-41 16t-17 41q0 24 16 40t42 17q24 0 40-16Zm210 0 16-16 17-41q0-24-16-40t-42-17q-24 0-40 16t-17 41q0 24 16 40t41 17q25 0 41-16Z" glyph-name="dieresis" horiz-adv-x="385" unicode="¨"/><glyph d="m492 748 71-40 113-112 42-162q0-90-41-161T564 161t-158-40q-86 0-158 40T134 272 92 434q0 90 42 161t114 112 158 41q86 0 157-40Zm-158-52-57-33-91-93-33-136q0-76 33-135t90-92 130-33q71 0 128 33t91 92 33 135q0 76-33 136t-90 93-129 33q-72 0-129-33Zm110-71 27-10 54-30-35-47q-38 27-78 27-41 0-66-32t-25-98q0-63 24-95t67-32q25 0 44 7t40 24l32-48q-52-46-119-46-74 0-119 50t-45 140q0 60 22 103t59 65 82 22q36 0 63-10Z" glyph-name="copyright" horiz-adv-x="810" unicode="©"/><glyph d="M313 525v24q0 39-20 55t-63 16q-49 0-113-21l-22 62q78 28 150 28 157 0 157-135V384q0-23 8-34t25-17l-19-61q-35 4-56 17t-33 42q-21-30-53-45t-73-15q-63 0-99 33t-37 89q0 64 49 98t141 34h58Zm-33-188 33 53v80h-48q-106 0-106-72 0-29 17-45t48-16q56 0 89 53ZM71 77h376V0H71v77Z" glyph-name="ordfeminine" horiz-adv-x="500" unicode="ª"/><glyph d="m230 535 55-38-135-210L285 77l-55-38L55 255v63l175 217Zm235 0 55-38-135-210L520 77l-55-38-175 216v63l175 217Z" glyph-name="guillemotleft" horiz-adv-x="575" unicode="«"/><glyph d="M438 361V141h-83v143H62v77h376Z" glyph-name="logicalnot" horiz-adv-x="500" unicode="¬"/><glyph d="M60 274v78h283v-78H60Z" glyph-name="uni00AD" horiz-adv-x="403" unicode="­"/><glyph d="m390 750 58-34 92-94 34-129q0-70-33-128t-92-93-130-34q-69 0-127 34t-91 92-34 129q0 70 33 129t92 93 127 35q71 0 129-34Zm-13-463 45 26 71 74 26 106q0 59-25 106t-71 75-104 27q-56 0-101-27t-70-74-26-107q0-59 25-106t71-73 101-27q58 0 103 26Zm51 235-18-19-47-29 74-115h-67l-61 106h-24V359h-57v276h78q122 0 122-84 0-29-18-48Zm-143-13h30q54 0 54 42 0 21-13 30t-43 10h-28v-82Z" glyph-name="registered" horiz-adv-x="641" unicode="®"/><glyph d="M303 667H30v69h273v-69Z" glyph-name="overscore" horiz-adv-x="333" unicode="¯"/><glyph d="m176 381-37 19-61 55-23 86q0 49 23 85t60 56 81 19q43 0 80-19t61-56 23-86q0-49-23-85t-60-55-81-19q-43 0-80 19Zm80 62 25 25 25 72q0 47-25 72t-62 26q-37 0-62-25t-25-72q0-47 25-72t62-26q37 0 62 25Z" glyph-name="degree" horiz-adv-x="523" unicode="°"/><glyph d="M62 0v77h376V0H62Zm230 542V392h146v-76H292V167h-84v149H63v76h145v150h84Z" glyph-name="plusminus" horiz-adv-x="500" unicode="±"/><glyph d="m259 746 37-34 38-86q0-34-16-65t-54-72-109-105h189l-8-62H67v58q84 81 120 119t51 66 16 55q0 30-18 47t-47 17q-26 0-45-10t-40-34l-49 38q55 68 140 68 64 0 101-34Z" glyph-name="uni00B2" horiz-adv-x="400" unicode="²"/><glyph d="m261 746 36-30 37-75q0-38-23-63t-63-35q44-4 72-30t28-72q0-55-42-91t-115-37q-87 0-139 60l45 42q38-41 90-41 37 0 58 19t22 52q0 36-20 51t-60 16h-34l9 56h23q32 0 52 16t20 47q0 26-18 41t-48 15q-25 0-46-9t-42-28l-40 44q58 52 134 52 64 0 100-30Z" glyph-name="uni00B3" horiz-adv-x="400" unicode="³"/><glyph d="m229 801 41-77-212-86-28 49 199 114Z" glyph-name="acute" horiz-adv-x="300" unicode="´"/><glyph d="m487 80 26-80-86-12q-11 26-15 45t-9 52v1q-24-42-59-70t-79-28q-35 0-57 11t-39 39q9-28 13-58t4-76v-106l-91-11v740h92V156q0-89 79-89 80 0 129 96v364h92V180q0-100 26-180Z" glyph-name="uni00B5" horiz-adv-x="588" unicode="µ"/><glyph d="M594 689v-891l-83-13v831H397v-818l-83-13v497q-113 6-168 61T90 486q0 97 66 150t180 53h258Z" glyph-name="paragraph" horiz-adv-x="734" unicode="¶"/><glyph d="m149 380 20-20 20-49q0-29-20-49t-50-21q-29 0-49 20t-20 50q0 29 20 49t49 20q30 0 50-20Z" glyph-name="middot" horiz-adv-x="240" unicode="·"/><glyph d="M152-56q48-4 70-27t23-58q0-48-35-74t-89-26q-28 0-52 6t-39 18l25 52q30-16 63-16 23 0 36 9t14 31q0 21-21 31T79-99L93 16h59v-72Z" glyph-name="cedilla" horiz-adv-x="275" unicode="¸"/><glyph d="M274 739V322h-77v338l-98-57-34 53 140 83h69Z" glyph-name="uni00B9" horiz-adv-x="400" unicode="¹"/><glyph d="m343 689 50-55 51-154q0-95-51-152t-143-57q-92 0-143 56T56 480q0 95 52 152t143 57q92 0 142-55Zm-192-69V480q0-140 99-140t99 140q0 72-24 106t-74 34q-100 0-100-140ZM62 0v77h376V0H62Z" glyph-name="ordmasculine" horiz-adv-x="500" unicode="º"/><glyph d="m110 535 175-217v-63L110 39 55 77l135 210L55 497l55 38Zm226 0 175-217v-63L336 39l-55 38 135 210-135 210 55 38Z" glyph-name="guillemotright" horiz-adv-x="566" unicode="»"/><glyph d="M274 689V272h-77v338l-98-57-34 53 140 83h69Zm366 61 59-29L293-78l-60 29 407 799Zm249-594V96h-53V0h-76v96H574v54l128 274 66-25-113-243h106l7 105h68V156h53Z" glyph-name="onequarter" horiz-adv-x="932" unicode="¼"/><glyph d="M274 689V272h-77v338l-98-57-34 53 140 83h69Zm366 61 59-29L293-78l-60 29 407 799Zm151-326 37-34 38-86q0-34-16-65t-54-72T687 62h189l-8-62H599v58q84 81 120 119t51 66 16 55q0 30-18 47t-47 17q-26 0-45-10t-40-34l-49 38q55 68 140 68 64 0 101-34Z" glyph-name="onehalf" horiz-adv-x="932" unicode="½"/><glyph d="m261 696 36-30 37-75q0-38-23-63t-63-35q44-4 72-30t28-72q0-55-42-91t-115-37q-87 0-139 60l45 42q38-41 90-41 37 0 58 19t22 52q0 36-20 51t-60 16h-34l9 56h23q32 0 52 16t20 47q0 26-18 41t-48 15q-25 0-46-9t-42-28l-40 44q58 52 134 52 64 0 100-30Zm379 54 59-29L293-78l-60 29 407 799Zm249-594V96h-53V0h-76v96H574v54l128 274 66-25-113-243h106l7 105h68V156h53Z" glyph-name="threequarters" horiz-adv-x="932" unicode="¾"/><glyph d="m224 356-20 20-20 49q0 29 20 49t50 21q29 0 49-20t20-50q0-29-20-49t-49-20q-30 0-50 20Zm-63-571-43 21-66 58-22 77q0 40 13 67t34 45 52 39q41 28 61 51t21 63v41h91v-46q0-42-14-71t-34-46-53-40q-38-24-56-44t-19-53q0-41 27-63t74-23q80 0 139 72l63-49q-84-99-208-99-60 0-103 21Z" glyph-name="questiondown" horiz-adv-x="459" unicode="¿"/><glyph d="m467 0-52 173H154L102 0H6l221 689h120L567 0H467ZM177 250h215L285 610 177 250Zm19 661 201-107-24-49-216 79 39 77Z" glyph-name="Agrave" horiz-adv-x="573" unicode="À"/><glyph d="m467 0-52 173H154L102 0H6l221 689h120L567 0H467ZM177 250h215L285 610 177 250Zm190 661 40-77-216-79-24 49 200 107Z" glyph-name="Aacute" horiz-adv-x="573" unicode="Á"/><glyph d="m467 0-52 173H154L102 0H6l221 689h120L567 0H467ZM177 250h215L285 610 177 250Zm-17 509-40 45 136 110h61l135-110-39-45-127 81-126-81Z" glyph-name="Acircumflex" horiz-adv-x="573" unicode="Â"/><glyph d="m467 0-52 173H154L102 0H6l221 689h120L567 0H467ZM177 250h215L285 610 177 250Zm149 532-15 7-35 20q-15 11-25 16t-22 5q-16 0-28-11t-25-35l-56 28q19 40 46 64t63 24q21 0 36-7t34-21l12-8q9-6 18-9t16-3q15 0 27 10t26 34l56-28q-19-42-47-64t-62-22q-19 0-34 7Z" glyph-name="Atilde" horiz-adv-x="573" unicode="Ã"/><glyph d="m467 0-52 173H154L102 0H6l221 689h120L567 0H467ZM177 250h215L285 610 177 250Zm29 644 16-16 17-41q0-24-16-40t-41-17q-25 0-41 16t-17 41q0 24 16 40t42 17q24 0 40-16Zm210 0 16-16 17-41q0-24-16-40t-42-17q-24 0-40 16t-17 41q0 24 16 40t41 17q25 0 41-16Z" glyph-name="Adieresis" horiz-adv-x="573" unicode="Ä"/><glyph d="m467 0-52 173H154L102 0H6l221 689h120L567 0H467ZM177 250h215L285 610 177 250Zm160 712 32-30 32-76q0-45-32-75t-82-31q-50 0-82 30t-32 76q0 45 32 75t82 31q50 0 82-30Zm-75-50-14-15-14-41q0-26 14-41t39-15q24 0 38 15t15 41q0 26-14 41t-39 15q-25 0-39-15Z" glyph-name="Aring" horiz-adv-x="573" unicode="Å"/><glyph d="M535 76h227V0H458l-40 173H150L85 0h-97l274 689h459l-11-76H401l56-226h255v-76H476l59-235ZM179 250h221l-84 363-137-363Z" glyph-name="AE" horiz-adv-x="816" unicode="Æ"/><glyph d="m512 36-41-20-95-26v-46q48-4 70-27t23-58q0-48-35-74t-89-26q-28 0-52 6t-39 18l25 52q30-16 63-16 23 0 36 9t14 31q0 21-21 31t-68 11l11 88q-77 7-135 50T88 160 55 345q0 113 38 193t103 122 145 41q62 0 104-16t87-52l-52-61q-63 51-133 51-86 0-138-66t-53-212q0-142 52-209t138-68q44 0 77 15t70 42l47-60q-28-29-69-49Z" glyph-name="Ccedilla" horiz-adv-x="560" unicode="Ç"/><glyph d="m473 689-11-76H195V388h232v-76H195V76h286V0H100v689h373ZM199 911l201-107-24-49-216 79 39 77Z" glyph-name="Egrave" horiz-adv-x="535" unicode="È"/><glyph d="m473 689-11-76H195V388h232v-76H195V76h286V0H100v689h373ZM370 911l40-77-216-79-24 49 200 107Z" glyph-name="Eacute" horiz-adv-x="535" unicode="É"/><glyph d="m473 689-11-76H195V388h232v-76H195V76h286V0H100v689h373Zm-310 70-40 45 136 110h61l135-110-39-45-127 81-126-81Z" glyph-name="Ecircumflex" horiz-adv-x="535" unicode="Ê"/><glyph d="m473 689-11-76H195V388h232v-76H195V76h286V0H100v689h373ZM209 894l16-16 17-41q0-24-16-40t-41-17q-25 0-41 16t-17 41q0 24 16 40t42 17q24 0 40-16Zm210 0 16-16 17-41q0-24-16-40t-42-17q-24 0-40 16t-17 41q0 24 16 40t41 17q25 0 41-16Z" glyph-name="Edieresis" horiz-adv-x="535" unicode="Ë"/><glyph d="M195 689V0h-95v689h95ZM56 911l201-107-24-49-216 79 39 77Z" glyph-name="Igrave" horiz-adv-x="295" unicode="Ì"/><glyph d="M195 689V0h-95v689h95Zm32 222 40-77-216-79-24 49 200 107Z" glyph-name="Iacute" horiz-adv-x="295" unicode="Í"/><glyph d="M195 689V0h-95v689h95ZM20 759l-40 45 136 110h61l135-110-39-45-127 81-126-81Z" glyph-name="Icircumflex" horiz-adv-x="295" unicode="Î"/><glyph d="M195 689V0h-95v689h95ZM66 894l16-16 17-41q0-24-16-40t-41-17q-25 0-41 16t-17 41q0 24 16 40t42 17q24 0 40-16Zm210 0 16-16 17-41q0-24-16-40t-42-17q-24 0-40 16t-17 41q0 24 16 40t41 17q25 0 41-16Z" glyph-name="Idieresis" horiz-adv-x="295" unicode="Ï"/><glyph d="m412 689 94-72 95-269q0-191-94-269T277 0H112v318H20v70h92v301h144q156 0 250-72ZM380 75l60 59 60 214q0 109-31 167t-79 78-113 20h-70V388h157v-70H207V75h77q96 0 156 59Z" glyph-name="Eth" horiz-adv-x="656" unicode="Ð"/><glyph d="M583 0H456L176 585q6-69 9-127t4-142V0h-89v689h124l283-586q-3 26-8 91t-5 119v376h89V0ZM392 782l-15 7-35 20q-15 11-25 16t-22 5q-16 0-28-11t-25-35l-56 28q19 40 46 64t63 24q21 0 36-7t34-21l12-8q9-6 18-9t16-3q15 0 27 10t26 34l56-28q-19-42-47-64t-62-22q-19 0-34 7Z" glyph-name="Ntilde" horiz-adv-x="683" unicode="Ñ"/><glyph d="m433 701 65-41 102-122 37-194q0-112-36-192T499 30 346-12q-87 0-152 41T92 150 55 343q0 111 36 192t103 123 152 43q87 0 152-41Zm-177-78-50-68-50-212q0-143 50-210t140-67q190 0 190 278 0 279-190 279-90 0-140-68Zm-1 288 201-107-24-49-216 79 39 77Z" glyph-name="Ograve" horiz-adv-x="692" unicode="Ò"/><glyph d="m433 701 65-41 102-122 37-194q0-112-36-192T499 30 346-12q-87 0-152 41T92 150 55 343q0 111 36 192t103 123 152 43q87 0 152-41Zm-177-78-50-68-50-212q0-143 50-210t140-67q190 0 190 278 0 279-190 279-90 0-140-68Zm170 288 40-77-216-79-24 49 200 107Z" glyph-name="Oacute" horiz-adv-x="692" unicode="Ó"/><glyph d="m433 701 65-41 102-122 37-194q0-112-36-192T499 30 346-12q-87 0-152 41T92 150 55 343q0 111 36 192t103 123 152 43q87 0 152-41Zm-177-78-50-68-50-212q0-143 50-210t140-67q190 0 190 278 0 279-190 279-90 0-140-68Zm-37 136-40 45 136 110h61l135-110-39-45-127 81-126-81Z" glyph-name="Ocircumflex" horiz-adv-x="692" unicode="Ô"/><glyph d="m433 701 65-41 102-122 37-194q0-112-36-192T499 30 346-12q-87 0-152 41T92 150 55 343q0 111 36 192t103 123 152 43q87 0 152-41Zm-177-78-50-68-50-212q0-143 50-210t140-67q190 0 190 278 0 279-190 279-90 0-140-68Zm129 159-15 7-35 20q-15 11-25 16t-22 5q-16 0-28-11t-25-35l-56 28q19 40 46 64t63 24q21 0 36-7t34-21l12-8q9-6 18-9t16-3q15 0 27 10t26 34l56-28q-19-42-47-64t-62-22q-19 0-34 7Z" glyph-name="Otilde" horiz-adv-x="692" unicode="Õ"/><glyph d="m433 701 65-41 102-122 37-194q0-112-36-192T499 30 346-12q-87 0-152 41T92 150 55 343q0 111 36 192t103 123 152 43q87 0 152-41Zm-177-78-50-68-50-212q0-143 50-210t140-67q190 0 190 278 0 279-190 279-90 0-140-68Zm9 271 16-16 17-41q0-24-16-40t-41-17q-25 0-41 16t-17 41q0 24 16 40t42 17q24 0 40-16Zm210 0 16-16 17-41q0-24-16-40t-42-17q-24 0-40 16t-17 41q0 24 16 40t41 17q25 0 41-16Z" glyph-name="Odieresis" horiz-adv-x="692" unicode="Ö"/><glyph d="m372 486 56-57-120-120 120-124-56-56-120 124-124-124-56 56 120 120L72 429l56 57 120-125 124 125Z" glyph-name="multiply" horiz-adv-x="500" unicode="×"/><glyph d="m558 628 39-82 40-202q0-112-36-192T499 30 346-12q-36 0-67 7l-35-122-79 21 40 128Q134 62 95 143T55 343q0 111 36 192t103 123 152 43q37 0 66-7l37 125 79-21-42-131q72-39 111-121Zm-302-5-50-68-50-212q0-185 82-246l158 521q-27 5-50 5-90 0-140-68ZM536 66v278q0 99-21 160t-63 90L296 71q25-5 50-5 190 0 190 278Z" glyph-name="Oslash" horiz-adv-x="692" unicode="Ø"/><glyph d="M572 221q0-69-28-121t-83-82-131-30q-115 0-177 63T90 221v468h95V228q0-80 36-120t109-40q74 0 110 39t36 121v461h96V221ZM240 911l201-107-24-49-216 79 39 77Z" glyph-name="Ugrave" horiz-adv-x="662" unicode="Ù"/><glyph d="M572 221q0-69-28-121t-83-82-131-30q-115 0-177 63T90 221v468h95V228q0-80 36-120t109-40q74 0 110 39t36 121v461h96V221ZM411 911l40-77-216-79-24 49 200 107Z" glyph-name="Uacute" horiz-adv-x="662" unicode="Ú"/><glyph d="M572 221q0-69-28-121t-83-82-131-30q-115 0-177 63T90 221v468h95V228q0-80 36-120t109-40q74 0 110 39t36 121v461h96V221ZM204 759l-40 45 136 110h61l135-110-39-45-127 81-126-81Z" glyph-name="Ucircumflex" horiz-adv-x="662" unicode="Û"/><glyph d="M572 221q0-69-28-121t-83-82-131-30q-115 0-177 63T90 221v468h95V228q0-80 36-120t109-40q74 0 110 39t36 121v461h96V221ZM250 894l16-16 17-41q0-24-16-40t-41-17q-25 0-41 16t-17 41q0 24 16 40t42 17q24 0 40-16Zm210 0 16-16 17-41q0-24-16-40t-42-17q-24 0-40 16t-17 41q0 24 16 40t41 17q25 0 41-16Z" glyph-name="Udieresis" horiz-adv-x="662" unicode="Ü"/><glyph d="M545 689 323 265V0h-96v264L5 689h105l168-341 168 341h99ZM355 911l40-77-216-79-24 49 200 107Z" glyph-name="Yacute" horiz-adv-x="550" unicode="Ý"/><glyph d="m409 571 70-54 70-163q0-116-73-171t-194-56h-87V0h-95v689h95V571h86q128 0 198-54Zm-47-369 43 33 43 118q0 77-43 110t-125 34h-85V202h83q84 0 127 33Z" glyph-name="Thorn" horiz-adv-x="581" unicode="Þ"/><glyph d="m351 750 40-19 63-51 22-73q0-41-17-65t-49-50q-24-20-34-33t-11-32q0-23 17-40t52-41q38-26 61-47t41-55 17-82q0-52-24-91t-66-61-88-22q-59 0-102 23l27 64q26-13 66-13 42 0 67 26t26 75q0 45-23 73t-70 61q-43 31-65 57t-23 66q0 33 14 52t43 43q27 22 40 40t13 47q0 37-26 56t-67 20q-108 0-108-139V0H95v539q0 100 52 155t149 56q55 0 95-19Z" glyph-name="germandbls" horiz-adv-x="593" unicode="ß"/><glyph d="m450 91 11-15 33-24-21-64q-41 5-66 23t-37 56q-53-79-157-79-78 0-123 44T45 147q0 84 60 129t172 45h81v39q0 56-27 80t-83 24q-58 0-142-28l-23 67q98 36 182 36 93 0 139-45t46-130V123q0-32 11-47ZM313 57l45 82v121h-69q-146 0-146-108 0-47 23-71t68-24q79 0 124 82ZM192 801l199-114-28-49-212 86 41 77Z" glyph-name="agrave" horiz-adv-x="544" unicode="à"/><glyph d="m450 91 11-15 33-24-21-64q-41 5-66 23t-37 56q-53-79-157-79-78 0-123 44T45 147q0 84 60 129t172 45h81v39q0 56-27 80t-83 24q-58 0-142-28l-23 67q98 36 182 36 93 0 139-45t46-130V123q0-32 11-47ZM313 57l45 82v121h-69q-146 0-146-108 0-47 23-71t68-24q79 0 124 82Zm27 744 41-77-212-86-28 49 199 114Z" glyph-name="aacute" horiz-adv-x="544" unicode="á"/><glyph d="m450 91 11-15 33-24-21-64q-41 5-66 23t-37 56q-53-79-157-79-78 0-123 44T45 147q0 84 60 129t172 45h81v39q0 56-27 80t-83 24q-58 0-142-28l-23 67q98 36 182 36 93 0 139-45t46-130V123q0-32 11-47ZM313 57l45 82v121h-69q-146 0-146-108 0-47 23-71t68-24q79 0 124 82ZM134 634l-39 45 135 113h61l136-113-40-45-126 84-127-84Z" glyph-name="acircumflex" horiz-adv-x="544" unicode="â"/><glyph d="m450 91 11-15 33-24-21-64q-41 5-66 23t-37 56q-53-79-157-79-78 0-123 44T45 147q0 84 60 129t172 45h81v39q0 56-27 80t-83 24q-58 0-142-28l-23 67q98 36 182 36 93 0 139-45t46-130V123q0-32 11-47ZM313 57l45 82v121h-69q-146 0-146-108 0-47 23-71t68-24q79 0 124 82Zm-13 599-15 7-35 20q-15 11-25 16t-22 5q-16 0-28-11t-25-35l-56 28q19 40 46 64t63 24q21 0 36-7t34-21l12-8q9-6 18-9t16-3q15 0 27 10t26 34l56-28q-19-42-47-64t-62-22q-19 0-34 7Z" glyph-name="atilde" horiz-adv-x="544" unicode="ã"/><glyph d="m450 91 11-15 33-24-21-64q-41 5-66 23t-37 56q-53-79-157-79-78 0-123 44T45 147q0 84 60 129t172 45h81v39q0 56-27 80t-83 24q-58 0-142-28l-23 67q98 36 182 36 93 0 139-45t46-130V123q0-32 11-47ZM313 57l45 82v121h-69q-146 0-146-108 0-47 23-71t68-24q79 0 124 82ZM180 768l16-16 17-41q0-24-16-40t-41-17q-25 0-41 16t-17 41q0 24 16 40t42 17q24 0 40-16Zm210 0 16-16 17-41q0-24-16-40t-42-17q-24 0-40 16t-17 41q0 24 16 40t41 17q25 0 41-16Z" glyph-name="adieresis" horiz-adv-x="544" unicode="ä"/><glyph d="m450 91 11-15 33-24-21-64q-41 5-66 23t-37 56q-53-79-157-79-78 0-123 44T45 147q0 84 60 129t172 45h81v39q0 56-27 80t-83 24q-58 0-142-28l-23 67q98 36 182 36 93 0 139-45t46-130V123q0-32 11-47ZM313 57l45 82v121h-69q-146 0-146-108 0-47 23-71t68-24q79 0 124 82Zm-2 779 32-30 32-76q0-45-32-75t-82-31q-50 0-82 30t-32 76q0 45 32 75t82 31q50 0 82-30Zm-75-50-14-15-14-41q0-26 14-41t39-15q24 0 38 15t15 41q0 26-14 41t-39 15q-25 0-39-15Z" glyph-name="aring" horiz-adv-x="544" unicode="å"/><glyph d="m797 256-2-24H459q6-87 44-128t98-41q38 0 70 11t67 35l40-55q-84-66-184-66-63 0-111 25t-79 72q-36-52-81-74T216-12q-79 0-125 44T45 147q0 84 62 129t173 45h81v39q0 56-27 80t-83 24q-58 0-142-28l-23 67q98 36 182 36 114 0 157-84 57 84 159 84t157-69 56-191q0-23-2-47Zm-91 50q0 78-31 119t-93 41q-113 0-123-166h247v6ZM279 57l33 22 64 70q-15 48-15 108v3h-69q-146 0-146-108 0-47 23-71t68-24q42 0 75 22Z" glyph-name="ae" horiz-adv-x="849" unicode="æ"/><glyph d="m385-5-77-6v-45q48-4 70-27t23-58q0-48-35-74t-89-26q-28 0-52 6t-39 18l25 52q30-16 63-16 23 0 36 9t14 31q0 21-21 31t-68 11l11 90Q157 5 107 75T57 259q0 84 28 147t79 98 123 35q47 0 86-13t75-44l-44-58q-28 20-54 29t-59 10q-64 0-99-51t-36-151q0-100 35-147t100-48q31 0 57 9t58 31l42-60Q385-5 308-11Z" glyph-name="ccedilla" horiz-adv-x="478" unicode="ç"/><glyph d="m493 256-2-24H155q6-87 44-128t98-41q38 0 70 11t67 35l40-55q-84-66-184-66-110 0-171 72T57 258q0 82 26 145t76 100 117 36q105 0 161-69t56-191q0-23-2-47Zm-91 50q0 78-31 119t-93 41q-113 0-123-166h247v6ZM210 801l199-114-28-49-212 86 41 77Z" glyph-name="egrave" horiz-adv-x="545" unicode="è"/><glyph d="m493 256-2-24H155q6-87 44-128t98-41q38 0 70 11t67 35l40-55q-84-66-184-66-110 0-171 72T57 258q0 82 26 145t76 100 117 36q105 0 161-69t56-191q0-23-2-47Zm-91 50q0 78-31 119t-93 41q-113 0-123-166h247v6Zm-44 495 41-77-212-86-28 49 199 114Z" glyph-name="eacute" horiz-adv-x="545" unicode="é"/><glyph d="m493 256-2-24H155q6-87 44-128t98-41q38 0 70 11t67 35l40-55q-84-66-184-66-110 0-171 72T57 258q0 82 26 145t76 100 117 36q105 0 161-69t56-191q0-23-2-47Zm-91 50q0 78-31 119t-93 41q-113 0-123-166h247v6ZM152 634l-39 45 135 113h61l136-113-40-45-126 84-127-84Z" glyph-name="ecircumflex" horiz-adv-x="545" unicode="ê"/><glyph d="m493 256-2-24H155q6-87 44-128t98-41q38 0 70 11t67 35l40-55q-84-66-184-66-110 0-171 72T57 258q0 82 26 145t76 100 117 36q105 0 161-69t56-191q0-23-2-47Zm-91 50q0 78-31 119t-93 41q-113 0-123-166h247v6ZM198 768l16-16 17-41q0-24-16-40t-41-17q-25 0-41 16t-17 41q0 24 16 40t42 17q24 0 40-16Zm210 0 16-16 17-41q0-24-16-40t-42-17q-24 0-40 16t-17 41q0 24 16 40t41 17q25 0 41-16Z" glyph-name="edieresis" horiz-adv-x="545" unicode="ë"/><glyph d="M187 527V0H95v527h92ZM72 801l199-114-28-49-212 86 41 77Z" glyph-name="igrave" horiz-adv-x="282" unicode="ì"/><glyph d="M187 527V0H95v527h92Zm33 274 41-77-212-86-28 49 199 114Z" glyph-name="iacute" horiz-adv-x="282" unicode="í"/><glyph d="M187 527V0H95v527h92ZM14 634l-39 45 135 113h61l136-113-40-45-126 84-127-84Z" glyph-name="icircumflex" horiz-adv-x="282" unicode="î"/><glyph d="M187 527V0H95v527h92ZM60 768l16-16 17-41q0-24-16-40t-41-17q-25 0-41 16t-17 41q0 24 16 40t42 17q24 0 40-16Zm210 0 16-16 17-41q0-24-16-40t-42-17q-24 0-40 16t-17 41q0 24 16 40t41 17q25 0 41-16Z" glyph-name="idieresis" horiz-adv-x="282" unicode="ï"/><glyph d="m432 596 38-95 38-236q0-83-29-145t-81-97-120-35q-62 0-112 29t-80 85-29 133q0 62 22 117t68 89 111 34q91 0 147-67-12 63-40 111t-79 88l-72-70-63 32 74 75q-52 24-113 36l20 70q85-17 149-48l70 74 54-47-63-65q90-68 128-163ZM340 61l37 53 38 152q0 21-2 59-26 39-60 58t-81 20q-121 0-121-164 0-86 34-132t92-46q63 0 100 53Z" glyph-name="eth" horiz-adv-x="570" unicode="ð"/><glyph d="m415 539 40-43 41-118V0h-92v365q0 56-21 79t-62 23q-42 0-74-24t-60-69V0H95v527h79l8-78q28 42 69 66t92 24q72 0 112-43Zm-78 117-15 7-35 20q-15 11-25 16t-22 5q-16 0-28-11t-25-35l-56 28q19 40 46 64t63 24q21 0 36-7t34-21l12-8q9-6 18-9t16-3q15 0 27 10t26 34l56-28q-19-42-47-64t-62-22q-19 0-34 7Z" glyph-name="ntilde" horiz-adv-x="586" unicode="ñ"/><glyph d="m404 539 61-74 62-201q0-82-28-144t-81-97-126-35q-111 0-173 74T57 263q0 82 28 144t81 97 127 35q111 0 172-74Zm-248-74V263q0-201 136-201t136 202q0 201-135 201-137 0-137-202Zm67 336 199-114-28-49-212 86 41 77Z" glyph-name="ograve" horiz-adv-x="584" unicode="ò"/><glyph d="m404 539 61-74 62-201q0-82-28-144t-81-97-126-35q-111 0-173 74T57 263q0 82 28 144t81 97 127 35q111 0 172-74Zm-248-74V263q0-201 136-201t136 202q0 201-135 201-137 0-137-202Zm215 336 41-77-212-86-28 49 199 114Z" glyph-name="oacute" horiz-adv-x="584" unicode="ó"/><glyph d="m404 539 61-74 62-201q0-82-28-144t-81-97-126-35q-111 0-173 74T57 263q0 82 28 144t81 97 127 35q111 0 172-74Zm-248-74V263q0-201 136-201t136 202q0 201-135 201-137 0-137-202Zm9 169-39 45 135 113h61l136-113-40-45-126 84-127-84Z" glyph-name="ocircumflex" horiz-adv-x="584" unicode="ô"/><glyph d="m404 539 61-74 62-201q0-82-28-144t-81-97-126-35q-111 0-173 74T57 263q0 82 28 144t81 97 127 35q111 0 172-74Zm-248-74V263q0-201 136-201t136 202q0 201-135 201-137 0-137-202Zm175 191-15 7-35 20q-15 11-25 16t-22 5q-16 0-28-11t-25-35l-56 28q19 40 46 64t63 24q21 0 36-7t34-21l12-8q9-6 18-9t16-3q15 0 27 10t26 34l56-28q-19-42-47-64t-62-22q-19 0-34 7Z" glyph-name="otilde" horiz-adv-x="584" unicode="õ"/><glyph d="m404 539 61-74 62-201q0-82-28-144t-81-97-126-35q-111 0-173 74T57 263q0 82 28 144t81 97 127 35q111 0 172-74Zm-248-74V263q0-201 136-201t136 202q0 201-135 201-137 0-137-202Zm55 303 16-16 17-41q0-24-16-40t-41-17q-25 0-41 16t-17 41q0 24 16 40t42 17q24 0 40-16Zm210 0 16-16 17-41q0-24-16-40t-42-17q-24 0-40 16t-17 41q0 24 16 40t41 17q25 0 41-16Z" glyph-name="odieresis" horiz-adv-x="584" unicode="ö"/><glyph d="m280 174 20-20 20-49q0-29-20-49t-50-21q-29 0-49 20t-20 50q0 29 20 49t49 20q30 0 50-20Zm0 457 20-20 20-49q0-29-20-49t-50-21q-29 0-49 20t-20 50q0 29 20 49t49 20q30 0 50-20ZM62 294v77h376v-77H62Z" glyph-name="divide" horiz-adv-x="500" unicode="÷"/><glyph d="m470 475 28-62 29-149q0-82-28-144t-81-97-126-35q-24 0-51 5l-39-123-75 22 42 127q-54 33-83 96T57 263q0 82 28 144t81 97 127 35q24 0 51-5l39 122 75-22-42-126q54-33 82-95Zm-314-10V263q0-129 48-174l124 373q-17 3-35 3-137 0-137-202ZM428 62v202q0 67-11 109t-36 64L258 65q15-3 34-3 136 0 136 202Z" glyph-name="oslash" horiz-adv-x="584" unicode="ø"/><glyph d="M487 0h-79l-7 82q-30-49-69-71t-95-23q-69 0-108 42T90 149v378h92V159q0-54 19-76t62-23q77 0 132 91v376h92V0ZM220 801l199-114-28-49-212 86 41 77Z" glyph-name="ugrave" horiz-adv-x="582" unicode="ù"/><glyph d="M487 0h-79l-7 82q-30-49-69-71t-95-23q-69 0-108 42T90 149v378h92V159q0-54 19-76t62-23q77 0 132 91v376h92V0ZM368 801l41-77-212-86-28 49 199 114Z" glyph-name="uacute" horiz-adv-x="582" unicode="ú"/><glyph d="M487 0h-79l-7 82q-30-49-69-71t-95-23q-69 0-108 42T90 149v378h92V159q0-54 19-76t62-23q77 0 132 91v376h92V0ZM162 634l-39 45 135 113h61l136-113-40-45-126 84-127-84Z" glyph-name="ucircumflex" horiz-adv-x="582" unicode="û"/><glyph d="M487 0h-79l-7 82q-30-49-69-71t-95-23q-69 0-108 42T90 149v378h92V159q0-54 19-76t62-23q77 0 132 91v376h92V0ZM208 768l16-16 17-41q0-24-16-40t-41-17q-25 0-41 16t-17 41q0 24 16 40t42 17q24 0 40-16Zm210 0 16-16 17-41q0-24-16-40t-42-17q-24 0-40 16t-17 41q0 24 16 40t41 17q25 0 41-16Z" glyph-name="udieresis" horiz-adv-x="582" unicode="ü"/><glyph d="M306-3q-31-92-86-145T61-213l-10 72q52 9 83 26t49 43 35 72h-31L10 527h98L249 67l138 460h95L306-3Zm19 804 41-77-212-86-28 49 199 114Z" glyph-name="yacute" horiz-adv-x="492" unicode="ý"/><glyph d="m438 539 47-72 47-203q0-124-54-200T325-12q-88 0-138 60v-246l-92-15v952l92 11V463q28 37 67 56t83 20q101 0 148-72Zm-5-476v201q0 202-119 202-39 0-71-23t-56-59V127q20-31 50-47t66-17q130 0 130 201Z" glyph-name="thorn" horiz-adv-x="594" unicode="þ"/><glyph d="M306-3q-31-92-86-145T61-213l-10 72q52 9 83 26t49 43 35 72h-31L10 527h98L249 67l138 460h95L306-3ZM165 768l16-16 17-41q0-24-16-40t-41-17q-25 0-41 16t-17 41q0 24 16 40t42 17q24 0 40-16Zm210 0 16-16 17-41q0-24-16-40t-42-17q-24 0-40 16t-17 41q0 24 16 40t41 17q25 0 41-16Z" glyph-name="ydieresis" horiz-adv-x="492" unicode="ÿ"/><glyph d="M32 274v78h456v-78H32Z" glyph-name="endash" horiz-adv-x="520" unicode="–"/><glyph d="M32 274v78h726v-78H32Z" glyph-name="emdash" horiz-adv-x="790" unicode="—"/><glyph d="m82 490-19 18-19 45q0 12 3 24t14 34l67 142h60l-40-150q26-20 26-50 0-26-19-44t-46-19q-27 0-46 18Z" glyph-name="quoteleft" horiz-adv-x="228" unicode="‘"/><glyph d="m146 753 19-18 19-45q0-12-3-24t-14-34l-67-142H40l40 150q-26 20-26 50 0 26 19 44t46 19q27 0 46-18Z" glyph-name="quoteright" horiz-adv-x="228" unicode="’"/><glyph d="m146 107 19-18 19-45q0-12-3-24t-14-34l-67-142H40L80-6Q54 14 54 44q0 26 19 44t46 19q27 0 46-18Z" glyph-name="quotesinglbase" horiz-adv-x="228" unicode="‚"/><glyph d="m82 490-19 18-19 45q0 12 3 24t14 34l67 142h60l-40-150q26-20 26-50 0-26-19-44t-46-19q-27 0-46 18Zm178 0-19 18-19 45q0 12 3 24t14 34l67 142h60l-40-150q26-20 26-50 0-26-19-44t-46-19q-27 0-46 18Z" glyph-name="quotedblleft" horiz-adv-x="406" unicode="“"/><glyph d="m146 753 19-18 19-45q0-12-3-24t-14-34l-67-142H40l40 150q-26 20-26 50 0 26 19 44t46 19q27 0 46-18Zm178 0 19-18 19-45q0-12-3-24t-14-34l-67-142h-60l40 150q-26 20-26 50 0 26 19 44t46 19q27 0 46-18Z" glyph-name="quotedblright" horiz-adv-x="406" unicode="”"/><glyph d="m146 107 19-18 19-45q0-12-3-24t-14-34l-67-142H40L80-6Q54 14 54 44q0 26 19 44t46 19q27 0 46-18Zm178 0 19-18 19-45q0-12-3-24t-14-34l-67-142h-60L258-6q-26 20-26 50 0 26 19 44t46 19q27 0 46-18Z" glyph-name="quotedblbase" horiz-adv-x="406" unicode="„"/><glyph d="m210 454 32-32 32-81q0-48-32-80t-80-32q-48 0-80 32t-32 81q0 48 32 80t80 32q48 0 80-32Z" glyph-name="bullet" horiz-adv-x="324" unicode="•"/><glyph d="m230 535 55-38-135-210L285 77l-55-38L55 255v63l175 217Z" glyph-name="guilsinglleft" horiz-adv-x="340" unicode="‹"/><glyph d="m110 535 175-217v-63L110 39 55 77l135 210L55 497l55 38Z" glyph-name="guilsinglright" horiz-adv-x="340" unicode="›"/></font>
</defs>
</svg>
